<svg width="22" height="22" viewBox="0 0 22 22" fill="none" xmlns="http://www.w3.org/2000/svg">
<path d="M19.25 6.16894C19.2317 6.16894 19.2042 6.16894 19.1767 6.16894C14.3275 5.68311 9.48748 5.49977 4.69332 5.98561L2.82332 6.16894C2.43832 6.20561 2.09915 5.93061 2.06248 5.54561C2.02582 5.16061 2.30082 4.83061 2.67665 4.79394L4.54665 4.61061C9.42332 4.11561 14.3641 4.30811 19.3141 4.79394C19.69 4.83061 19.965 5.16977 19.9283 5.54561C19.9008 5.90311 19.5983 6.16894 19.25 6.16894Z" fill="#B6349A"/>
<path d="M7.7917 5.24301C7.75503 5.24301 7.71836 5.24301 7.67253 5.23384C7.30586 5.16967 7.0492 4.81217 7.11336 4.44551L7.31503 3.24467C7.4617 2.36467 7.66336 1.14551 9.7992 1.14551H12.2009C14.3459 1.14551 14.5475 2.41051 14.685 3.25384L14.8867 4.44551C14.9509 4.82134 14.6942 5.17884 14.3275 5.23384C13.9517 5.29801 13.5942 5.04134 13.5392 4.67467L13.3375 3.48301C13.2092 2.68551 13.1817 2.52967 12.21 2.52967H9.80836C8.8367 2.52967 8.81836 2.65801 8.68086 3.47384L8.47003 4.66551C8.41503 5.00467 8.1217 5.24301 7.7917 5.24301Z" fill="#B6349A"/>
<path d="M13.9424 20.8546H8.05745C4.85828 20.8546 4.72995 19.0854 4.62911 17.6554L4.03328 8.4246C4.00578 8.04877 4.29911 7.71877 4.67495 7.69127C5.05995 7.67294 5.38078 7.9571 5.40828 8.33294L6.00411 17.5638C6.10495 18.9571 6.14161 19.4796 8.05745 19.4796H13.9424C15.8674 19.4796 15.9041 18.9571 15.9958 17.5638L16.5916 8.33294C16.6191 7.9571 16.9491 7.67294 17.3249 7.69127C17.7008 7.71877 17.9941 8.0396 17.9666 8.4246L17.3708 17.6554C17.2699 19.0854 17.1416 20.8546 13.9424 20.8546Z" fill="#B6349A"/>
<path d="M12.5216 15.8125H9.46912C9.09328 15.8125 8.78162 15.5008 8.78162 15.125C8.78162 14.7492 9.09328 14.4375 9.46912 14.4375H12.5216C12.8974 14.4375 13.2091 14.7492 13.2091 15.125C13.2091 15.5008 12.8974 15.8125 12.5216 15.8125Z" fill="#B6349A"/>
<path d="M13.2917 12.1455H8.70837C8.33254 12.1455 8.02087 11.8338 8.02087 11.458C8.02087 11.0822 8.33254 10.7705 8.70837 10.7705H13.2917C13.6675 10.7705 13.9792 11.0822 13.9792 11.458C13.9792 11.8338 13.6675 12.1455 13.2917 12.1455Z" fill="#B6349A"/>
</svg>
