<svg width="24" height="24" viewBox="0 0 24 24" fill="none" xmlns="http://www.w3.org/2000/svg">
<path d="M20.7846 3.21958C21.0775 2.92669 21.5524 2.92669 21.8453 3.21958C22.1115 3.48584 22.1357 3.90251 21.9179 4.19612L21.8453 4.28024L15.8453 10.2802C15.5524 10.5731 15.0775 10.5731 14.7846 10.2802C14.5183 10.014 14.4941 9.59731 14.712 9.3037L14.7846 9.21958L20.7846 3.21958Z" fill="#212121"/>
<path d="M14.7846 3.21958C15.0509 2.95331 15.4675 2.92911 15.7612 3.14696L15.8453 3.21958L21.8453 9.21958C22.1382 9.51247 22.1382 9.98735 21.8453 10.2802C21.579 10.5465 21.1623 10.5707 20.8687 10.3529L20.7846 10.2802L14.7846 4.28024C14.4917 3.98735 14.4917 3.51247 14.7846 3.21958Z" fill="#212121"/>
<path fill-rule="evenodd" clip-rule="evenodd" d="M2.47109 3.82946L2.54364 3.75364C4.47106 1.82605 5.72622 1.31512 7.06544 2.08523C7.45067 2.30676 7.81183 2.61684 8.30291 3.11562L9.80929 4.67764C10.6413 5.58554 10.8305 6.45639 10.5595 7.47626L10.5222 7.61128L10.4808 7.74553L10.2794 8.33635C9.8484 9.66133 10.0283 10.4089 11.5618 11.942C13.1565 13.5363 13.9009 13.6667 15.3281 13.168L15.5825 13.0796L15.89 12.9797L16.0247 12.9423C17.1087 12.6531 18.0244 12.8839 18.9956 13.8544L20.2093 15.0268L20.5666 15.3782C20.9627 15.7821 21.2245 16.1022 21.4179 16.4405C22.1832 17.7793 21.6717 19.0337 19.6887 21.0093L19.5 21.2005C19.204 21.4858 18.9274 21.6903 18.521 21.8832C17.8388 22.2071 17.033 22.3292 16.0966 22.1989C13.7891 21.878 10.8625 20.0574 7.15425 16.3501C6.85239 16.0483 6.56327 15.7523 6.28662 15.4621L5.74985 14.8892C0.719996 9.42445 0.276261 6.06749 2.33755 3.96211L2.47109 3.82946ZM7.08879 4.02253C6.76299 3.70134 6.52633 3.50554 6.31769 3.38556C5.85616 3.12017 5.35787 3.23235 4.43567 4.02608L4.1459 4.28495C4.09536 4.33161 4.04366 4.38004 3.99075 4.43029L3.65848 4.75392L3.62854 4.79133L3.40328 5.01764C2.85893 5.57365 2.60108 6.25224 2.82328 7.41928C3.18788 9.3343 4.85679 11.9321 8.21478 15.2893C11.7137 18.7873 14.3795 20.4457 16.3032 20.7132C17.4246 20.8692 17.9966 20.5976 18.5799 20L19.0248 19.5511C19.2334 19.3328 19.4116 19.1349 19.5621 18.9542L19.7674 18.6955C20.2921 17.9967 20.34 17.5774 20.1156 17.1849C20.0302 17.0355 19.906 16.8718 19.7253 16.6717L19.48 16.4126L19.3349 16.2674L17.8036 14.7888C17.2919 14.3169 16.9423 14.25 16.4113 14.3916L16.2581 14.4357L15.6238 14.651C13.7837 15.2453 12.4562 14.9572 10.5013 13.0028C8.47667 10.9787 8.23922 9.62698 8.91759 7.68078L8.96111 7.55572L9.08145 7.19314L9.14061 6.96204C9.24551 6.45907 9.12574 6.10838 8.58507 5.56761C8.5628 5.54535 8.53792 5.52027 8.51085 5.49281L7.08879 4.02253Z" fill="#212121"/>
</svg>
