<svg width="24" height="24" viewBox="0 0 24 24" fill="none" xmlns="http://www.w3.org/2000/svg">
<mask id="mask0_401_46156" style="mask-type:luminance" maskUnits="userSpaceOnUse" x="2" y="2" width="20" height="20">
<path fill-rule="evenodd" clip-rule="evenodd" d="M2.00049 2H21.5001V21.5007H2.00049V2Z" fill="white"/>
</mask>
<g mask="url(#mask0_401_46156)">
<path fill-rule="evenodd" clip-rule="evenodd" d="M8.77349 11.5987C8.79149 11.6147 8.80849 11.6297 8.82549 11.6477C9.90449 12.7537 10.4995 14.2187 10.4995 15.7737V19.7577L12.7355 18.5397C12.9115 18.4437 13.0205 18.2557 13.0205 18.0487V15.7617C13.0205 14.2127 13.6095 12.7527 14.6785 11.6527L19.5155 6.50769C19.8285 6.17469 20.0005 5.73769 20.0005 5.27669V4.34069C20.0005 3.87669 19.6345 3.49969 19.1865 3.49969H4.31549C3.86649 3.49969 3.50049 3.87669 3.50049 4.34069V5.27669C3.50049 5.73769 3.67249 6.1747 3.98549 6.50669L8.77349 11.5987ZM10.1465 21.5007C9.94449 21.5007 9.74449 21.4467 9.56249 21.3387C9.21049 21.1287 8.99949 20.7577 8.99949 20.3457V15.7737C8.99949 14.6387 8.57649 13.5697 7.80549 12.7507C7.78249 12.7317 7.75949 12.7107 7.73949 12.6887L2.89349 7.53569C2.31749 6.92369 2.00049 6.12069 2.00049 5.27669V4.34069C2.00049 3.04969 3.03949 1.99969 4.31549 1.99969H19.1865C20.4615 1.99969 21.5005 3.04969 21.5005 4.34069V5.27669C21.5005 6.11969 21.1835 6.92169 20.6095 7.53469L15.7625 12.6887C14.9595 13.5167 14.5205 14.6057 14.5205 15.7617V18.0487C14.5205 18.8047 14.1115 19.4967 13.4535 19.8567L10.6925 21.3607C10.5205 21.4537 10.3335 21.5007 10.1465 21.5007Z" fill="#212121"/>
</g>
</svg>
