<svg width="20" height="20" viewBox="0 0 20 20" fill="none" xmlns="http://www.w3.org/2000/svg">
<path d="M20 10.225C20 9.56671 19.9404 8.94171 19.8382 8.33337H10.2171V12.0917H15.7258C15.4789 13.325 14.7552 14.3667 13.6824 15.075V17.575H16.9689C18.8931 15.8334 20 13.2667 20 10.225Z" fill="#0D0C0D"/>
<path d="M10.2171 20C12.9757 20 15.2831 19.1 16.9689 17.575L13.6824 15.075C12.7629 15.675 11.5964 16.0417 10.2171 16.0417C7.55214 16.0417 5.29586 14.2833 4.487 11.9083H1.09833V14.4833C2.77564 17.75 6.22391 20 10.2171 20Z" fill="#0D0C0D"/>
<path d="M4.48702 11.9084C4.27416 11.3084 4.16347 10.6667 4.16347 10.0001C4.16347 9.33339 4.28267 8.69172 4.48702 8.09172V5.51672H1.09834C0.40017 6.86672 0 8.38339 0 10.0001C0 11.6167 0.40017 13.1334 1.09834 14.4834L4.48702 11.9084Z" fill="#0D0C0D"/>
<path d="M10.2171 3.95833C11.7241 3.95833 13.0694 4.46667 14.1337 5.45833L17.0455 2.60833C15.2831 0.991667 12.9757 0 10.2171 0C6.22391 0 2.77564 2.25 1.09833 5.51667L4.487 8.09167C5.29586 5.71667 7.55214 3.95833 10.2171 3.95833Z" fill="#0D0C0D"/>
</svg>
