<svg width="41" height="41" viewBox="0 0 41 41" fill="none" xmlns="http://www.w3.org/2000/svg">
<path fill-rule="evenodd" clip-rule="evenodd" d="M20.198 0C25.5882 0.0964502 30.7247 2.28441 34.5021 6.09303C38.2796 9.90165 40.3961 15.0265 40.3961 20.3647C40.3961 25.7029 38.2796 30.8277 34.5021 34.6363C30.7247 38.445 25.5882 40.6329 20.198 40.7294C14.8079 40.6329 9.67136 38.445 5.89391 34.6363C2.11646 30.8277 0 25.7029 0 20.3647C0 15.0265 2.11646 9.90165 5.89391 6.09303C9.67136 2.28441 14.8079 0.0964502 20.198 0ZM15.9269 26.98L10.8903 21.9883C10.478 21.5787 10.2465 21.0239 10.2465 20.4456C10.2465 19.8673 10.478 19.3125 10.8903 18.9029C11.3047 18.495 11.8652 18.2661 12.4494 18.2661C13.0337 18.2661 13.5942 18.495 14.0085 18.9029L17.5566 22.4205L26.3875 13.6762C26.8012 13.268 27.3615 13.0387 27.9455 13.0387C28.5296 13.0387 29.0898 13.268 29.5035 13.6762C29.9152 14.0861 30.1464 14.6408 30.1464 15.2189C30.1464 15.7971 29.9152 16.3517 29.5035 16.7617L19.1124 27.051C18.9014 27.2588 18.6503 27.4222 18.3739 27.5316C18.0976 27.6409 17.8019 27.6938 17.5044 27.6872C17.2069 27.6806 16.9139 27.6145 16.6428 27.493C16.3717 27.3715 16.1282 27.197 15.9269 26.98Z" fill="#00BA00"/>
</svg>
