<svg width="27" height="22" viewBox="0 0 27 22" fill="none" xmlns="http://www.w3.org/2000/svg">
<rect x="0.625" y="0.625" width="25" height="20" rx="10" stroke="#FFFAFE" stroke-width="1.25"/>
<rect x="0.625" y="0.625" width="25" height="20" rx="3.75" fill="#100F11" stroke="#EFE4ED" stroke-width="1.16667"/>
<path d="M10.625 14.5332C12.6961 14.5332 14.375 12.8543 14.375 10.7832C14.375 8.71214 12.6961 7.0332 10.625 7.0332C8.55393 7.0332 6.875 8.71214 6.875 10.7832C6.875 12.8543 8.55393 14.5332 10.625 14.5332Z" fill="#EE0005"/>
<path d="M15.284 14.5332C17.3551 14.5332 19.034 12.8543 19.034 10.7832C19.034 8.71214 17.3551 7.0332 15.284 7.0332C13.213 7.0332 11.534 8.71214 11.534 10.7832C11.534 12.8543 13.213 14.5332 15.284 14.5332Z" fill="#F9A000"/>
<path d="M11.534 10.7833C11.534 11.974 12.0891 13.035 12.9544 13.7219C13.8198 13.035 14.3749 11.974 14.3749 10.7833C14.3749 9.59261 13.8198 8.53164 12.9544 7.84473C12.0891 8.5317 11.534 9.59264 11.534 10.7833Z" fill="#FF6300"/>
</svg>
