<svg width="24" height="16" viewBox="0 0 24 16" fill="none" xmlns="http://www.w3.org/2000/svg">
<path d="M2.59252 10.5515C2.59252 11.4713 2.79358 12.1774 3.05657 12.6046C3.40128 13.1642 3.9154 13.4017 4.43956 13.4017C5.11553 13.4017 5.73399 13.2333 6.92578 11.5789C7.88081 10.2529 9.00565 8.39157 9.76264 7.22468L11.0446 5.24776C11.9351 3.87483 12.9658 2.34863 14.1477 1.31411C15.1128 0.46969 16.1533 0.000610352 17.2007 0.000610352C18.9593 0.000610352 20.6343 1.02342 21.9163 2.94172C23.3193 5.04253 24.0002 7.68881 24.0002 10.4195C24.0002 12.043 23.6815 13.2358 23.1389 14.1782C22.6148 15.0896 21.5932 16.0002 19.8748 16.0002V13.4013C21.3462 13.4013 21.7134 12.0442 21.7134 10.4912C21.7134 8.27806 21.1993 5.82208 20.0667 4.06714C19.2631 2.82235 18.2215 2.06177 17.0755 2.06177C15.8361 2.06177 14.8387 3.00014 13.7178 4.67274C13.1219 5.56156 12.5101 6.64461 11.8232 7.8668L11.067 9.21128C9.54821 11.9149 9.16338 12.5303 8.40387 13.5462C7.07275 15.3253 5.93596 15.9998 4.43956 15.9998C2.6643 15.9998 1.54178 15.2282 0.846508 14.0655C0.279015 13.1182 0.000244141 11.875 0.000244141 10.4586L2.59252 10.5515Z" fill="#B6349A"/>
<path d="M2.04379 3.12454C3.23226 1.28586 4.94741 0 6.91459 0C8.0538 0 9.18657 0.338415 10.369 1.30765C11.6626 2.36709 13.0414 4.11264 14.7616 6.98826L15.3783 8.01996C16.8673 10.5095 17.7144 11.7904 18.2102 12.3943C18.8477 13.1699 19.2943 13.4012 19.8744 13.4012C21.3458 13.4012 21.7129 12.0441 21.7129 10.4911L23.9998 10.419C23.9998 12.0425 23.681 13.2353 23.1385 14.1777C22.6144 15.089 21.5928 15.9997 19.8744 15.9997C18.806 15.9997 17.8596 15.7668 16.813 14.7758C16.0088 14.0152 15.0678 12.664 14.3442 11.4494L12.1917 7.84076C11.1118 6.02972 10.1208 4.67939 9.54778 4.06784C8.93092 3.41018 8.13804 2.61611 6.87277 2.61611C5.84876 2.61611 4.97908 3.33734 4.25134 4.44057L2.04379 3.12454Z" fill="#B6349A"/>
<path d="M6.8732 2.61611C5.8492 2.61611 4.97951 3.33734 4.25177 4.44056C3.22264 5.99945 2.59302 8.32144 2.59302 10.5513C2.59302 11.4711 2.79408 12.1772 3.05707 12.6044L0.846508 14.0653C0.279015 13.118 0.000244141 11.8748 0.000244141 10.4584C0.000244141 7.88253 0.70466 5.19781 2.04423 3.12454C3.2327 1.28586 4.94784 0 6.91502 0L6.8732 2.61611Z" fill="#B6349A"/>
</svg>
