<svg width="24" height="24" viewBox="0 0 24 24" fill="none" xmlns="http://www.w3.org/2000/svg">
<path fill-rule="evenodd" clip-rule="evenodd" d="M7.5729 3.5117C5.9149 3.5117 4.5399 4.8537 4.5009 6.5087V17.3397C4.4719 18.9867 5.7789 20.3387 7.4139 20.3667L7.5609 20.3657H15.5729C17.2149 20.3477 18.5539 18.9907 18.5519 17.3407V8.3417L13.9179 3.5117H7.5849H7.5729ZM7.3999 21.8667C4.9269 21.8237 2.9589 19.7867 3.0009 17.3267V6.4907C3.0579 4.0097 5.1069 2.0117 7.5699 2.0117H7.5879H14.2369C14.4409 2.0117 14.6359 2.0947 14.7779 2.2417L19.8439 7.5207C19.9769 7.6597 20.0519 7.8467 20.0519 8.0397V17.3397C20.0559 19.8087 18.0499 21.8397 15.5809 21.8657L7.3999 21.8667Z" fill="#212121"/>
<path fill-rule="evenodd" clip-rule="evenodd" d="M13.7935 13.6641H8.89453C8.48053 13.6641 8.14453 13.3281 8.14453 12.9141C8.14453 12.5001 8.48053 12.1641 8.89453 12.1641H13.7935C14.2075 12.1641 14.5435 12.5001 14.5435 12.9141C14.5435 13.3281 14.2075 13.6641 13.7935 13.6641Z" fill="#212121"/>
<path fill-rule="evenodd" clip-rule="evenodd" d="M11.3445 16.1143C10.9305 16.1143 10.5945 15.7783 10.5945 15.3643V10.4643C10.5945 10.0503 10.9305 9.71429 11.3445 9.71429C11.7585 9.71429 12.0945 10.0503 12.0945 10.4643V15.3643C12.0945 15.7783 11.7585 16.1143 11.3445 16.1143Z" fill="#212121"/>
<path fill-rule="evenodd" clip-rule="evenodd" d="M19.2976 8.9844H16.5436C14.7126 8.9794 13.2246 7.4874 13.2246 5.6594V2.7504C13.2246 2.3364 13.5606 2.0004 13.9746 2.0004C14.3886 2.0004 14.7246 2.3364 14.7246 2.7504V5.6594C14.7246 6.6634 15.5416 7.4814 16.5456 7.4844H19.2976C19.7116 7.4844 20.0476 7.8204 20.0476 8.2344C20.0476 8.6484 19.7116 8.9844 19.2976 8.9844Z" fill="#212121"/>
</svg>
