<svg width="18" height="20" viewBox="0 0 18 20" fill="none" xmlns="http://www.w3.org/2000/svg">
<g clip-path="url(#clip0_4435_111552)">
<path d="M14.543 1.55644C13.6099 0.504641 11.9232 0.0537109 9.76545 0.0537109H3.50293C3.06146 0.0537109 2.68632 0.371236 2.6172 0.80177L0.00963023 17.1571C-0.042209 17.4796 0.210298 17.7717 0.540843 17.7717H4.40705L5.37806 11.6809L5.34796 11.8716C5.41708 11.4411 5.78943 11.1235 6.23034 11.1235H8.06757C11.6768 11.1235 14.5029 9.67374 15.3284 5.47976C15.3529 5.35572 15.3741 5.235 15.3925 5.11703C15.2883 5.06245 15.2883 5.06245 15.3925 5.11703C15.6383 3.56689 15.3908 2.51178 14.543 1.55644Z" fill="#27346A"/>
<path d="M6.85743 4.5586C6.96055 4.51009 7.07538 4.48308 7.19578 4.48308H12.1055C12.6868 4.48308 13.2292 4.52056 13.7247 4.59939C13.8669 4.622 14.0046 4.64791 14.1383 4.67767C14.2721 4.70689 14.402 4.73997 14.528 4.77635C14.591 4.79454 14.6528 4.81328 14.7136 4.83313C14.9572 4.91361 15.184 5.00733 15.3925 5.11703C15.6383 3.56633 15.3908 2.51178 14.543 1.55644C13.6094 0.504641 11.9232 0.0537109 9.76545 0.0537109H3.50237C3.06146 0.0537109 2.68632 0.371236 2.6172 0.80177L0.00963062 17.1565C-0.0422087 17.4796 0.210299 17.7712 0.540287 17.7712H4.40705L6.42154 5.13742C6.46279 4.87833 6.63112 4.6661 6.85743 4.5586Z" fill="#27346A"/>
<path d="M15.3279 5.47992C14.5024 9.67334 11.6763 11.1237 8.06705 11.1237H6.22927C5.78835 11.1237 5.416 11.4412 5.34744 11.8718L4.13953 19.445C4.09438 19.7272 4.31511 19.983 4.60385 19.983H7.86304C8.24877 19.983 8.57708 19.7052 8.63728 19.3286L8.66906 19.1644L9.28332 15.3144L9.3229 15.1016C9.3831 14.7251 9.71142 14.4472 10.0971 14.4472H10.5849C13.7421 14.4472 16.2142 13.1788 16.9366 9.51017C17.2381 7.97712 17.0821 6.6971 16.2844 5.79799C16.0425 5.52567 15.7421 5.30076 15.392 5.11719C15.373 5.23571 15.3524 5.35588 15.3279 5.47992Z" fill="#2790C3"/>
<path d="M14.5287 4.77667C14.4027 4.74029 14.2728 4.70721 14.139 4.67799C14.0053 4.64878 13.867 4.62287 13.7254 4.60027C13.2293 4.52088 12.6875 4.4834 12.1056 4.4834H7.19648C7.07552 4.4834 6.96069 4.51041 6.85813 4.55947C6.63126 4.66697 6.46348 4.87865 6.42223 5.13829L5.37876 11.6812L5.34866 11.8719C5.41722 11.4414 5.78957 11.1239 6.23048 11.1239H8.06827C11.6775 11.1239 14.5036 9.67406 15.3291 5.48008C15.3536 5.35604 15.3743 5.23587 15.3932 5.11735C15.1842 5.0082 14.9579 4.91393 14.7143 4.834C14.6535 4.81415 14.5917 4.79486 14.5287 4.77667Z" fill="#171717"/>
</g>
<defs>
<clipPath id="clip0_4435_111552">
<rect width="17.1429" height="20" fill="white"/>
</clipPath>
</defs>
</svg>
