<svg width="24" height="24" viewBox="0 0 24 24" fill="none" xmlns="http://www.w3.org/2000/svg">
<mask id="mask0_401_46175" style="mask-type:luminance" maskUnits="userSpaceOnUse" x="2" y="14" width="16" height="8">
<path fill-rule="evenodd" clip-rule="evenodd" d="M2 14.456H17.754V21.7949H2V14.456Z" fill="white"/>
</mask>
<g mask="url(#mask0_401_46175)">
<path fill-rule="evenodd" clip-rule="evenodd" d="M9.877 15.956C5.646 15.956 3.5 16.683 3.5 18.115C3.5 19.561 5.646 20.295 9.877 20.295C14.108 20.295 16.254 19.568 16.254 18.137C16.254 16.689 14.108 15.956 9.877 15.956ZM9.877 21.795C7.929 21.795 2 21.795 2 18.115C2 14.835 6.495 14.456 9.877 14.456C11.825 14.456 17.754 14.456 17.754 18.137C17.754 21.416 13.259 21.795 9.877 21.795Z" fill="#212121"/>
</g>
<path fill-rule="evenodd" clip-rule="evenodd" d="M19.2041 13.4297C18.7901 13.4297 18.4541 13.0937 18.4541 12.6797V8.6687C18.4541 8.2547 18.7901 7.9187 19.2041 7.9187C19.6181 7.9187 19.9541 8.2547 19.9541 8.6687V12.6797C19.9541 13.0937 19.6181 13.4297 19.2041 13.4297Z" fill="#212121"/>
<path fill-rule="evenodd" clip-rule="evenodd" d="M21.2499 11.4238H17.1599C16.7459 11.4238 16.4099 11.0878 16.4099 10.6738C16.4099 10.2598 16.7459 9.9238 17.1599 9.9238H21.2499C21.6639 9.9238 21.9999 10.2598 21.9999 10.6738C21.9999 11.0878 21.6639 11.4238 21.2499 11.4238Z" fill="#212121"/>
<path fill-rule="evenodd" clip-rule="evenodd" d="M9.87709 3.5C7.77309 3.5 6.06009 5.213 6.06009 7.318C6.05609 8.337 6.44809 9.292 7.16309 10.013C7.87909 10.733 8.83309 11.132 9.84909 11.136L9.87709 11.886V11.136C11.9821 11.136 13.6951 9.423 13.6951 7.318C13.6951 5.213 11.9821 3.5 9.87709 3.5ZM9.87709 12.636H9.84609C8.42709 12.631 7.09709 12.074 6.10009 11.07C5.10209 10.065 4.55509 8.731 4.56009 7.315C4.56009 4.386 6.94509 2 9.87709 2C12.8101 2 15.1951 4.386 15.1951 7.318C15.1951 10.25 12.8101 12.636 9.87709 12.636Z" fill="#212121"/>
</svg>
